<?xml version="1.0" encoding="UTF-8"?>
<svg id="Layer_2" data-name="Layer 2" xmlns="http://www.w3.org/2000/svg" viewBox="0 0 230.08 225.24">
  <defs>
    <style>
      .cls-1 {
        fill: none;
      }

      .cls-2 {
        fill: #402a32;
      }

      .cls-3 {
        fill: #8c030e;
      }

      .cls-4 {
        fill: #fff;
      }
    </style>
  </defs>
  <g id="Layer_1-2" data-name="Layer 1-2">
    <path class="cls-1" d="M58.45,79.86c6.61-14.1,15.23-24.66,32.18-45.21,16.72-20.26,23.39-25.8,32.18-29.88,6.01-2.79,14.4-6.55,22.99-3.83,10.35,3.27,15.33,14.15,19.92,25.28,12.36,29.99,18.54,44.98,23.75,74.32,1.21,6.83,5.34,31.1,3.83,62.06-.77,15.72-2.58,24.98-9.19,32.95-8.85,10.65-21.57,13.31-27.58,14.56-19.42,4.05-35.38-2.15-49.04-7.66-21.27-8.58-42.18-17.02-53.63-39.08-11.26-21.69-7.14-44.55-5.36-54.4,2.26-12.53,6.4-21.51,9.96-29.11h0Z"/>
    <path class="cls-3" d="M16.24,80.4c-4.41,6.92-21.41,32.78-14.69,57.74,1.86,6.9,4.62,13.63,8.82,19.41,3.18,4.37,7.12,8.13,11.28,11.58,13.89,11.51,30.2,19.66,46.5,27.39,28.05,13.31,57.21,25.88,88.16,28.35,8,.64,16.15.59,23.93-1.38,14.53-3.66,26.65-13.66,36.79-24.68,4.14-4.5,8.12-9.33,10.36-15.03,2.64-6.71,2.71-14.12,2.68-21.33-.05-12.91-.3-25.92-2.92-38.56-5.78-27.88-19.07-28.67-20.45-51.05-.28-4.56-.26-12.4-3.92-13.78-1.29-.49-2.67-.02-14.62,6.82-5.2,2.98-5.47,3.19-5.79,3.54-5.64,5.98.13,19.75,2.94,27.62,0,0,9.22,25.78,7.73,59.91-.57,13.08-1.42,27.8-12.22,38.99-6.3,6.52-13.34,9.12-17.11,10.47-25.1,8.95-50.36-3.57-62.32-9.5-23.43-11.61-35.64-27.7-45.06-40.12-8.5-11.2-12.08-19.33-12.98-28.16-.56-5.48.48-9.78,1.86-18.29,2.37-14.62,5.02-29.91,14.02-41.68,5.8-7.58,14.05-13.43,18-22.11-9.87-17.25-16.5-20.58-20.9-19.94-6.4.93-8.2,10.31-17.74,25.73-10.33,16.71-13.23,13.79-22.33,28.06h-.02Z"/>
    <g>
      <path class="cls-2" d="M97.78,64.06c4.79-.99,10.02.13,13.88,2.97,1.52,9.97,1.39,20.15.23,30.16-.62,5.35-1.62,10.69-1.54,16.07.14,8.38,2.92,16.71,1.85,25.03,3.28,0,7.67.79,10.95.79-.3,5.17-.11,10.37.41,15.53.25,2.5.76,5.26,2.87,6.81-5.05,0-10.11.02-15.16.02.6,9.37,1.06,18.76,1.96,28.11-9.55-.58-18.67-.22-28.19.77,1.08-9.85-.27-19.9-3.51-29.32-13.83-.89-27.97.2-41.56,2.77-1.03.2-1.45-1.24-1.4-2.22.35-6.85.7-13.7,1.04-20.55,13.21-12.2,20.75-28.42,30.56-43.19,5.81-8.74,12.22-17.12,19.2-25.07,2.59-2.95,4.42-7.86,8.39-8.68h.02Z"/>
      <path class="cls-4" d="M65.54,127.2c1.9-2.15,3.56-4.47,5.22-6.78,6.78-9.47,13.56-18.94,20.34-28.41,1.95,4.58.16,9.71-1.34,14.44-3.11,9.84-4.91,20.06-5.32,30.32-.02.41-.05.87-.36,1.15-.35.32-.89.31-1.38.28-5.52-.35-14.91.8-19.93-1.25s.06-6.78,2.76-9.75h0Z"/>
    </g>
    <g>
      <path class="cls-2" d="M174.12,34.09c4.79-.99,10.02.13,13.88,2.97,1.52,9.97,1.39,20.15.23,30.16-.62,5.35-1.62,10.69-1.54,16.07.14,8.38,2.92,16.71,1.85,25.03,3.28,0,7.67.79,10.95.79-.3,5.17-.11,10.37.41,15.53.25,2.5.76,5.26,2.87,6.81-5.05,0-10.11.02-15.16.02.6,9.37,1.06,18.76,1.96,28.11-9.55-.58-18.67-.22-28.19.77,1.08-9.85-.27-19.9-3.51-29.32-13.83-.89-27.97.2-41.56,2.77-1.03.2-1.45-1.24-1.4-2.22.35-6.85.7-13.7,1.04-20.55,13.21-12.2,20.75-28.42,30.56-43.19,5.81-8.74,12.22-17.12,19.2-25.07,2.59-2.95,4.42-7.86,8.39-8.68h.02Z"/>
      <path class="cls-4" d="M141.88,97.24c1.9-2.15,3.56-4.47,5.22-6.78,6.78-9.47,13.56-18.94,20.34-28.41,1.95,4.58.16,9.71-1.34,14.44-3.11,9.84-4.91,20.06-5.32,30.32-.02.41-.05.87-.36,1.15-.35.32-.89.31-1.38.28-5.52-.35-14.91.8-19.93-1.25s.06-6.78,2.76-9.75h.01Z"/>
    </g>
  </g>
</svg>